<svg xmlns="http://www.w3.org/2000/svg" viewBox="0 0 64 64" fill="none" stroke="currentColor" stroke-width="2" stroke-linecap="round" stroke-linejoin="round">
  <!-- Central Spear Point -->
  <path d="M32 4 L36 18 L32 26 L28 18 Z" fill="currentColor" opacity="0.2"/>
  <path d="M32 4 L32 60" stroke-width="3"/>
  <!-- Left Prong -->
  <path d="M32 26 C22 26 14 18 14 8 C14 18 20 34 32 36"/>
  <path d="M14 8 L18 16 L14 20 L10 16 Z" fill="currentColor"/>
  <!-- Right Prong -->
  <path d="M32 26 C42 26 50 18 50 8 C50 18 44 34 32 36"/>
  <path d="M50 8 L54 16 L50 20 L46 16 Z" fill="currentColor"/>
  <!-- Base ring -->
  <ellipse cx="32" cy="38" rx="8" ry="3" fill="currentColor"/>
</svg>
